{
    "asset" : {
        "generator" : "Khronos glTF Blender I/O v1.6.16",
        "version" : "2.0"
    },
    "scene" : 0,
    "scenes" : [
        {
            "name" : "Scene",
            "nodes" : [
                0,
                1,
                2,
                3
            ]
        }
    ],
    "nodes" : [
        {
            "mesh" : 0,
            "name" : "Plane",
            "translation" : [
                13.06116008758545,
                -20.718795776367188,
                0
            ]
        },
        {
            "mesh" : 1,
            "name" : "Plane.001",
            "translation" : [
                6.33079719543457,
                -20.718795776367188,
                0
            ]
        },
        {
            "mesh" : 2,
            "name" : "Plane.002",
            "scale" : [
                0.444502592086792,
                0.444502592086792,
                1
            ],
            "translation" : [
                -4.0634565353393555,
                8.248220443725586,
                0
            ]
        },
        {
            "mesh" : 3,
            "name" : "Plane.003",
            "scale" : [
                0.444502592086792,
                0.444502592086792,
                1
            ],
            "translation" : [
                12.62097454071045,
                -26.68259620666504,
                4.693263690569438e-06
            ]
        }
    ],
    "meshes" : [
        {
            "name" : "Plane",
            "primitives" : [
                {
                    "attributes" : {
                        "POSITION" : 0,
                        "NORMAL" : 1,
                        "TEXCOORD_0" : 2
                    },
                    "indices" : 3
                }
            ]
        },
        {
            "name" : "Plane.001",
            "primitives" : [
                {
                    "attributes" : {
                        "POSITION" : 4,
                        "NORMAL" : 5,
                        "TEXCOORD_0" : 6
                    },
                    "indices" : 3
                }
            ]
        },
        {
            "name" : "Plane.002",
            "primitives" : [
                {
                    "attributes" : {
                        "POSITION" : 7,
                        "NORMAL" : 8,
                        "TEXCOORD_0" : 9
                    },
                    "indices" : 3
                }
            ]
        },
        {
            "name" : "Plane.003",
            "primitives" : [
                {
                    "attributes" : {
                        "POSITION" : 10,
                        "NORMAL" : 11,
                        "TEXCOORD_0" : 12
                    },
                    "indices" : 3
                }
            ]
        }
    ],
    "accessors" : [
        {
            "bufferView" : 0,
            "componentType" : 5126,
            "count" : 40,
            "max" : [
                1,
                41.676204681396484,
                1
            ],
            "min" : [
                -20.743934631347656,
                0,
                -1.209094524383545
            ],
            "type" : "VEC3"
        },
        {
            "bufferView" : 1,
            "componentType" : 5126,
            "count" : 40,
            "type" : "VEC3"
        },
        {
            "bufferView" : 2,
            "componentType" : 5126,
            "count" : 40,
            "type" : "VEC2"
        },
        {
            "bufferView" : 3,
            "componentType" : 5123,
            "count" : 84,
            "type" : "SCALAR"
        },
        {
            "bufferView" : 4,
            "componentType" : 5126,
            "count" : 40,
            "max" : [
                1,
                41.676204681396484,
                1
            ],
            "min" : [
                -20.743934631347656,
                0,
                -1.209094524383545
            ],
            "type" : "VEC3"
        },
        {
            "bufferView" : 5,
            "componentType" : 5126,
            "count" : 40,
            "type" : "VEC3"
        },
        {
            "bufferView" : 6,
            "componentType" : 5126,
            "count" : 40,
            "type" : "VEC2"
        },
        {
            "bufferView" : 7,
            "componentType" : 5126,
            "count" : 40,
            "max" : [
                1,
                41.676204681396484,
                1
            ],
            "min" : [
                -20.743934631347656,
                0,
                -1.209094524383545
            ],
            "type" : "VEC3"
        },
        {
            "bufferView" : 8,
            "componentType" : 5126,
            "count" : 40,
            "type" : "VEC3"
        },
        {
            "bufferView" : 9,
            "componentType" : 5126,
            "count" : 40,
            "type" : "VEC2"
        },
        {
            "bufferView" : 10,
            "componentType" : 5126,
            "count" : 40,
            "max" : [
                1,
                41.676204681396484,
                1
            ],
            "min" : [
                -20.743934631347656,
                0,
                -1.209094524383545
            ],
            "type" : "VEC3"
        },
        {
            "bufferView" : 11,
            "componentType" : 5126,
            "count" : 40,
            "type" : "VEC3"
        },
        {
            "bufferView" : 12,
            "componentType" : 5126,
            "count" : 40,
            "type" : "VEC2"
        }
    ],
    "bufferViews" : [
        {
            "buffer" : 0,
            "byteLength" : 480,
            "byteOffset" : 0
        },
        {
            "buffer" : 0,
            "byteLength" : 480,
            "byteOffset" : 480
        },
        {
            "buffer" : 0,
            "byteLength" : 320,
            "byteOffset" : 960
        },
        {
            "buffer" : 0,
            "byteLength" : 168,
            "byteOffset" : 1280
        },
        {
            "buffer" : 0,
            "byteLength" : 480,
            "byteOffset" : 1448
        },
        {
            "buffer" : 0,
            "byteLength" : 480,
            "byteOffset" : 1928
        },
        {
            "buffer" : 0,
            "byteLength" : 320,
            "byteOffset" : 2408
        },
        {
            "buffer" : 0,
            "byteLength" : 480,
            "byteOffset" : 2728
        },
        {
            "buffer" : 0,
            "byteLength" : 480,
            "byteOffset" : 3208
        },
        {
            "buffer" : 0,
            "byteLength" : 320,
            "byteOffset" : 3688
        },
        {
            "buffer" : 0,
            "byteLength" : 480,
            "byteOffset" : 4008
        },
        {
            "buffer" : 0,
            "byteLength" : 480,
            "byteOffset" : 4488
        },
        {
            "buffer" : 0,
            "byteLength" : 320,
            "byteOffset" : 4968
        }
    ],
    "buffers" : [
        {
            "byteLength" : 5288,
            "uri" : "iss1.bin"
        }
    ]
}
